<svg width="428" height="128" viewBox="0 0 428 128" fill="none" xmlns="http://www.w3.org/2000/svg">
<g filter="url(#filter0_i_19_3)">
<path fill-rule="evenodd" clip-rule="evenodd" d="M76.9609 10.6734C55.6689 22.628 29.66 39.5778 31.1028 53.3647C32.09 62.7979 41.4407 65.717 50.4297 68.5231C66.0188 73.3897 80.5203 77.9168 48.4252 115.492L16.5 97.0602C13.406 95.2739 11.5 91.9726 11.5 88.4V39.3C11.5 35.7273 13.406 32.4261 16.5 30.6397L59.0218 6.08975C62.1159 4.30342 65.9278 4.30342 69.0218 6.08975L76.9609 10.6734Z" fill="url(#paint0_linear_19_3)"/>
</g>
<g filter="url(#filter1_i_19_3)">
<path fill-rule="evenodd" clip-rule="evenodd" d="M76.9725 10.732C55.6805 22.6866 29.6716 39.6364 31.1144 53.4233C32.1015 62.8565 41.4522 65.7756 50.4412 68.5818C66.0303 73.4484 80.5318 77.9754 48.4367 115.551L53.5816 118.521C55.7553 116.411 57.9719 114.286 60.1926 112.157C85.0916 88.2848 110.495 63.9285 81.5668 55.4001C46.5 45.062 58.0917 30.2979 83.3064 14.3889L76.9725 10.732Z" fill="url(#paint1_linear_19_3)"/>
</g>
<g filter="url(#filter2_i_19_3)">
<path fill-rule="evenodd" clip-rule="evenodd" d="M53.5266 118.518L58.9783 121.666C62.0723 123.452 65.8843 123.452 68.9783 121.666L111.5 97.1159C114.594 95.3296 116.5 92.0283 116.5 88.4556V39.3556C116.5 35.783 114.594 32.4817 111.5 30.6954L83.409 14.4769C56.0263 30.5494 48.4073 45.6376 81.5117 55.3972C110.44 63.9256 85.0366 88.2819 60.1375 112.154C57.9169 114.283 55.7003 116.409 53.5266 118.518Z" fill="url(#paint2_linear_19_3)"/>
</g>
<path d="M138.5 48.7493H151.014L162.629 90.9551L174.244 48.7493H186.677L173.999 93.1635H151.178L138.5 48.7493Z" fill="white"/>
<path d="M191.124 48.7493H203.639V93.1635H191.124V48.7493ZM190.961 31H203.884V42.7784H190.961V31Z" fill="white"/>
<path d="M208.156 48.7493H220.67L232.285 90.9551L243.9 48.7493H256.333L243.655 93.1635H220.834L208.156 48.7493Z" fill="white"/>
<path d="M281.735 110.177C278.081 110.177 274.701 109.631 271.592 108.541C268.484 107.505 265.894 105.869 263.822 103.633C261.75 101.452 260.523 98.7255 260.141 95.4538H272.738C273.174 97.4714 274.21 98.9982 275.846 100.034C277.482 101.125 279.445 101.67 281.735 101.67C284.516 101.67 286.779 100.907 288.524 99.3799C290.269 97.8531 291.141 95.5901 291.141 92.591V83.1029C289.887 85.9929 287.951 88.3377 285.334 90.1371C282.716 91.8821 279.745 92.7546 276.418 92.7546C272.819 92.7546 269.629 91.8276 266.848 89.9736C264.067 88.065 261.913 85.4204 260.387 82.0395C258.86 78.6042 258.096 74.6781 258.096 70.2612C258.096 65.8443 258.86 61.9454 260.387 58.5646C261.913 55.1293 264.067 52.4846 266.848 50.6306C269.629 48.7221 272.819 47.7678 276.418 47.7678C280.126 47.7678 283.234 48.7766 285.743 50.7942C288.306 52.8118 290.105 55.4019 291.141 58.5646V48.7493H303.574V92.3456C303.574 96.5444 302.511 99.9797 300.384 102.652C298.312 105.324 295.613 107.232 292.286 108.377C289.015 109.577 285.497 110.177 281.735 110.177ZM270.856 70.2612C270.856 74.6781 271.729 78.1134 273.474 80.5672C275.273 83.0211 277.863 84.248 281.244 84.248C284.57 84.248 287.133 83.0211 288.933 80.5672C290.732 78.1134 291.632 74.6781 291.632 70.2612C291.632 65.8443 290.732 62.4089 288.933 59.9551C287.133 57.5013 284.57 56.2744 281.244 56.2744C277.863 56.2744 275.273 57.5013 273.474 59.9551C271.729 62.4089 270.856 65.8443 270.856 70.2612Z" fill="white"/>
<path d="M312.263 48.7493H324.695V60.3641C325.622 56.6016 327.313 53.5752 329.767 51.2849C332.22 48.9402 335.465 47.7678 339.5 47.7678V60.0369H336.31C332.329 60.0369 329.412 60.8276 327.558 62.4089C325.704 63.9358 324.777 66.5259 324.777 70.1794V93.1635H312.263V48.7493Z" fill="white"/>
<path d="M344.575 48.7493H357.089V93.1635H344.575V48.7493ZM344.411 31H357.334V42.7784H344.411V31Z" fill="white"/>
<path d="M382.137 94.1451C378.538 94.1451 375.348 93.1635 372.567 91.2005C369.786 89.1829 367.632 86.4291 366.105 82.9393C364.578 79.3949 363.815 75.4142 363.815 70.9973C363.815 66.5804 364.578 62.6271 366.105 59.1372C367.632 55.5928 369.786 52.8118 372.567 50.7942C375.348 48.7766 378.538 47.7678 382.137 47.7678C384.645 47.7678 386.881 48.2858 388.844 49.3219C390.861 50.3034 392.524 51.6394 393.833 53.3298C395.196 55.0202 396.205 56.8742 396.859 58.8918V31H409.21V93.1635H396.859V84.1662C395.66 87.1653 393.751 89.5919 391.134 91.4459C388.516 93.2453 385.517 94.1451 382.137 94.1451ZM376.575 70.9973C376.575 75.5778 377.447 79.1767 379.192 81.7941C380.991 84.357 383.554 85.6385 386.881 85.6385C390.207 85.6385 392.77 84.357 394.569 81.7941C396.423 79.1767 397.35 75.5778 397.35 70.9973C397.35 66.4169 396.451 62.8179 394.651 60.2005C392.852 57.5831 390.261 56.2744 386.881 56.2744C383.554 56.2744 380.991 57.5831 379.192 60.2005C377.447 62.7634 376.575 66.3623 376.575 70.9973Z" fill="white"/>
<defs>
<filter id="filter0_i_19_3" x="11.5" y="4.75" width="65.4609" height="118.742" filterUnits="userSpaceOnUse" color-interpolation-filters="sRGB">
<feFlood flood-opacity="0" result="BackgroundImageFix"/>
<feBlend mode="normal" in="SourceGraphic" in2="BackgroundImageFix" result="shape"/>
<feColorMatrix in="SourceAlpha" type="matrix" values="0 0 0 0 0 0 0 0 0 0 0 0 0 0 0 0 0 0 127 0" result="hardAlpha"/>
<feOffset dy="8"/>
<feGaussianBlur stdDeviation="5"/>
<feComposite in2="hardAlpha" operator="arithmetic" k2="-1" k3="1"/>
<feColorMatrix type="matrix" values="0 0 0 0 0.474186 0 0 0 0 1 0 0 0 0 0.769745 0 0 0 0.27 0"/>
<feBlend mode="normal" in2="shape" result="effect1_innerShadow_19_3"/>
</filter>
<filter id="filter1_i_19_3" x="31.0569" y="10.732" width="63.3884" height="127.789" filterUnits="userSpaceOnUse" color-interpolation-filters="sRGB">
<feFlood flood-opacity="0" result="BackgroundImageFix"/>
<feBlend mode="normal" in="SourceGraphic" in2="BackgroundImageFix" result="shape"/>
<feColorMatrix in="SourceAlpha" type="matrix" values="0 0 0 0 0 0 0 0 0 0 0 0 0 0 0 0 0 0 127 0" result="hardAlpha"/>
<feOffset dy="20"/>
<feGaussianBlur stdDeviation="10"/>
<feComposite in2="hardAlpha" operator="arithmetic" k2="-1" k3="1"/>
<feColorMatrix type="matrix" values="0 0 0 0 0.0173133 0 0 0 0 0.212321 0 0 0 0 0.149919 0 0 0 1 0"/>
<feBlend mode="normal" in2="shape" result="effect1_innerShadow_19_3"/>
</filter>
<filter id="filter2_i_19_3" x="53.5266" y="14.4769" width="62.9736" height="128.529" filterUnits="userSpaceOnUse" color-interpolation-filters="sRGB">
<feFlood flood-opacity="0" result="BackgroundImageFix"/>
<feBlend mode="normal" in="SourceGraphic" in2="BackgroundImageFix" result="shape"/>
<feColorMatrix in="SourceAlpha" type="matrix" values="0 0 0 0 0 0 0 0 0 0 0 0 0 0 0 0 0 0 127 0" result="hardAlpha"/>
<feOffset dy="20"/>
<feGaussianBlur stdDeviation="10"/>
<feComposite in2="hardAlpha" operator="arithmetic" k2="-1" k3="1"/>
<feColorMatrix type="matrix" values="0 0 0 0 0.857546 0 0 0 0 0.909473 0 0 0 0 0.685539 0 0 0 0.15 0"/>
<feBlend mode="normal" in2="shape" result="effect1_innerShadow_19_3"/>
</filter>
<linearGradient id="paint0_linear_19_3" x1="44.2305" y1="4.75" x2="44.2305" y2="115.492" gradientUnits="userSpaceOnUse">
<stop stop-color="#2DF093"/>
<stop offset="1" stop-color="#004442"/>
</linearGradient>
<linearGradient id="paint1_linear_19_3" x1="62.7511" y1="10.732" x2="62.7511" y2="118.521" gradientUnits="userSpaceOnUse">
<stop stop-color="#054628"/>
<stop offset="0.9999" stop-color="#072D28"/>
<stop offset="1" stop-color="#B1B1B1"/>
</linearGradient>
<linearGradient id="paint2_linear_19_3" x1="85.0134" y1="14.4769" x2="85.0134" y2="123.006" gradientUnits="userSpaceOnUse">
<stop stop-color="#FDFFA3"/>
<stop offset="1" stop-color="#003C40"/>
</linearGradient>
</defs>
</svg>
